<?xml version="1.0" encoding="UTF-8" standalone="no"?>
<svg
   xmlns:dc="http://purl.org/dc/elements/1.1/"
   xmlns:cc="http://creativecommons.org/ns#"
   xmlns:rdf="http://www.w3.org/1999/02/22-rdf-syntax-ns#"
   xmlns:svg="http://www.w3.org/2000/svg"
   xmlns="http://www.w3.org/2000/svg"
   xmlns:sodipodi="http://sodipodi.sourceforge.net/DTD/sodipodi-0.dtd"
   xmlns:inkscape="http://www.inkscape.org/namespaces/inkscape"
   width="220pt"
   height="220pt"
   viewBox="0 0 220 220"
   version="1.1"
   id="svg2"
   sodipodi:version="0.32"
   inkscape:version="0.46"
   sodipodi:docname="driller.svg"
   inkscape:output_extension="org.inkscape.output.svg.inkscape">
  <metadata
     id="metadata189">
    <rdf:RDF>
      <cc:Work
         rdf:about="">
        <dc:format>image/svg+xml</dc:format>
        <dc:type
           rdf:resource="http://purl.org/dc/dcmitype/StillImage" />
      </cc:Work>
    </rdf:RDF>
  </metadata>
  <defs
     id="defs187">
    <inkscape:perspective
       sodipodi:type="inkscape:persp3d"
       inkscape:vp_x="0 : 137.5 : 1"
       inkscape:vp_y="0 : 1000 : 0"
       inkscape:vp_z="275 : 137.5 : 1"
       inkscape:persp3d-origin="137.5 : 91.666667 : 1"
       id="perspective191" />
  </defs>
  <sodipodi:namedview
     inkscape:window-height="675"
     inkscape:window-width="640"
     inkscape:pageshadow="2"
     inkscape:pageopacity="0.0"
     guidetolerance="10.0"
     gridtolerance="10.0"
     objecttolerance="10.0"
     borderopacity="1.0"
     bordercolor="#666666"
     pagecolor="#ffffff"
     id="base"
     showgrid="false"
     inkscape:zoom="1.68"
     inkscape:cx="137.5"
     inkscape:cy="135.83333"
     inkscape:window-x="299"
     inkscape:window-y="179"
     inkscape:current-layer="svg2" />
  <path
     fill="#ed3e63"
     stroke="#ed3e63"
     stroke-width="0.09375"
     d=" M 6.2 8.2 C 8.3 3.5 14.0 1.3 18.9 2.0 C 23.3 2.5 26.6 5.7 29.0 9.2 C 31.5 5.9 34.4 1.8 39.0 1.9 C 43.5 1.4 48.4 3.1 51.0 6.9 C 55.5 12.9 59.2 19.4 63.7 25.3 C 64.9 21.9 65.2 17.7 68.2 15.2 C 70.7 13.3 73.7 11.7 77.0 11.9 C 81.1 11.8 84.0 15.8 88.0 15.9 C 90.9 16.1 93.9 16.0 96.4 17.6 C 99.3 19.0 100.6 22.2 102.2 24.7 C 104.3 25.1 106.9 24.7 108.7 26.3 C 110.9 28.2 113.3 29.7 115.7 31.4 C 116.5 33.0 116.9 34.9 117.5 36.6 C 115.3 36.9 115.4 40.9 117.9 40.1 C 118.6 40.1 119.9 39.9 120.6 39.8 C 123.2 35.2 128.4 31.9 133.8 33.4 C 134.7 30.6 135.2 27.5 137.2 25.2 C 140.0 22.4 144.3 22.8 147.9 23.0 C 150.2 23.1 151.6 25.2 153.3 26.6 C 155.0 24.6 157.2 22.7 160.0 23.0 C 170.6 23.1 181.3 22.9 191.9 23.1 C 198.7 23.9 201.5 31.2 202.9 37.0 C 202.1 38.2 201.8 39.6 201.8 41.0 C 201.4 44.7 200.5 48.3 201.2 52.0 C 202.0 56.8 199.6 62.4 194.8 63.9 C 191.5 64.6 188.2 63.1 185.0 64.0 C 180.6 65.3 176.2 64.1 171.7 64.4 C 164.3 64.9 156.8 63.9 149.3 64.3 C 147.9 67.9 146.8 72.3 143.1 74.1 C 137.2 76.7 130.6 74.3 124.4 75.3 C 122.4 78.6 121.9 83.6 117.7 85.0 C 114.4 86.3 111.5 83.8 108.9 82.0 C 106.9 83.7 105.1 85.7 102.5 86.5 C 100.1 86.8 97.6 85.9 95.2 85.9 C 92.8 86.2 90.5 87.3 88.1 87.2 C 85.9 86.7 84.0 85.5 82.1 84.4 C 76.4 93.8 66.3 101.1 55.0 101.4 C 50.3 101.5 45.2 102.0 40.8 99.9 C 38.8 98.2 36.9 96.3 34.9 94.6 C 35.9 92.1 36.1 89.3 37.0 86.8 C 38.1 83.7 41.6 81.6 41.1 78.1 C 41.0 70.2 41.0 62.2 41.0 54.3 C 39.0 54.0 36.9 53.9 34.9 53.3 C 36.7 53.5 38.5 53.6 40.3 53.7 C 40.5 52.3 40.7 50.8 41.0 49.4 C 36.8 49.4 32.8 48.0 28.7 48.0 C 22.0 49.7 15.1 49.3 8.4 48.6 C 7.0 46.2 4.8 44.0 5.0 41.0 C 4.9 33.4 5.1 25.7 5.0 18.0 C 5.0 14.7 4.6 11.2 6.2 8.2 Z"
     id="path6" />
  <path
     fill="#fffefe"
     stroke="#fffefe"
     stroke-width="0.09375"
     d=" M 6.8 13.0 C 7.0 7.1 13.2 2.3 19.0 3.9 C 24.2 5.0 26.9 10.1 29.8 14.1 C 30.8 11.3 31.5 8.0 34.0 6.0 C 37.6 2.8 43.4 2.9 47.0 6.0 C 51.3 9.5 53.4 14.9 56.7 19.2 C 60.1 23.5 62.5 28.4 66.0 32.6 C 66.2 29.4 66.1 26.2 66.3 23.0 C 66.5 17.7 71.8 13.4 77.0 14.0 C 80.3 14.0 82.8 16.4 85.1 18.4 C 88.8 17.9 93.1 17.2 96.1 19.9 C 98.7 21.6 99.7 24.7 100.3 27.6 C 102.7 27.0 106.0 25.5 107.7 28.2 C 109.5 30.7 112.5 31.5 114.6 33.5 C 116.4 36.0 114.4 38.8 113.1 41.1 C 116.3 41.0 119.5 42.0 122.3 43.7 C 123.0 40.7 124.1 37.5 127.0 36.1 C 129.9 34.2 133.3 35.7 136.2 36.9 C 136.2 33.0 136.4 28.4 140.0 25.9 C 144.0 22.6 150.6 24.8 152.4 29.6 C 153.9 34.2 153.1 39.1 153.2 43.9 C 153.6 43.9 154.3 43.8 154.7 43.8 C 154.6 39.2 154.4 34.6 154.7 30.0 C 154.9 27.2 157.3 24.6 160.2 24.5 C 164.1 24.2 168.0 24.4 171.9 24.6 C 178.5 25.3 185.3 23.9 192.0 24.9 C 197.5 26.5 200.6 32.6 200.7 38.0 C 201.3 42.0 198.6 45.7 199.3 49.6 C 200.4 53.9 199.8 59.3 195.7 61.8 C 192.9 63.7 189.6 62.3 186.9 61.0 C 185.3 61.8 183.7 62.7 181.9 63.2 C 179.4 63.4 177.0 62.1 174.5 62.4 C 165.4 63.6 156.3 61.7 147.2 62.9 C 147.1 67.3 145.2 72.4 140.4 73.3 C 134.8 74.0 128.8 74.2 123.4 72.2 C 121.8 76.2 121.5 82.2 116.6 83.6 C 111.9 84.6 110.1 79.4 108.6 76.0 C 107.8 79.3 106.8 83.0 103.4 84.5 C 100.6 85.9 97.7 84.4 95.1 83.2 C 93.0 84.4 90.8 86.2 88.2 85.7 C 85.3 85.3 83.6 82.6 81.8 80.6 C 78.9 86.5 74.9 91.9 69.0 95.1 C 62.1 100.0 53.2 99.8 45.0 99.3 C 40.6 99.0 36.5 94.5 37.8 90.0 C 38.0 86.5 40.6 84.0 43.1 81.9 C 43.2 75.0 43.1 68.0 43.2 61.0 C 43.2 56.4 42.0 51.7 43.6 47.3 C 39.2 47.4 34.4 48.2 30.4 45.7 C 28.1 44.7 26.3 47.4 24.0 47.3 C 19.5 47.4 14.7 48.0 10.3 46.8 C 6.4 45.3 6.4 40.5 6.5 37.0 C 6.7 29.0 6.5 21.0 6.8 13.0 Z"
     id="path8" />
  <path
     fill="#63212a"
     stroke="#63212a"
     stroke-width="0.09375"
     d=" M 11.7 7.7 C 14.8 5.0 19.9 5.4 22.7 8.4 C 26.7 12.5 28.8 18.0 32.6 22.3 C 32.9 18.4 32.0 14.2 33.4 10.4 C 35.4 5.5 42.3 4.4 46.0 8.0 C 50.2 12.0 52.5 17.5 55.8 22.2 C 59.9 27.6 63.5 33.4 67.1 39.3 C 68.3 41.0 68.0 44.0 65.7 44.7 C 62.7 45.2 59.5 45.3 56.5 44.4 C 54.7 42.9 53.6 40.6 52.2 38.7 C 51.7 41.2 51.3 45.0 48.0 45.1 C 43.1 45.2 38.1 45.5 33.2 44.9 C 30.9 43.1 29.9 40.3 28.4 37.9 C 27.9 40.4 28.2 44.4 24.9 45.0 C 20.9 45.4 16.9 45.2 13.0 45.1 C 10.7 45.3 8.8 43.3 8.9 41.0 C 8.7 32.7 8.9 24.3 8.8 16.0 C 8.8 13.0 9.2 9.6 11.7 7.7 Z"
     id="path10" />
  <path
     fill="#f7b5ce"
     stroke="#f7b5ce"
     stroke-width="0.09375"
     d=" M 11.4 12.3 C 12.2 8.7 16.9 7.0 19.9 9.1 C 22.9 11.2 24.5 14.6 26.6 17.5 C 22.8 22.1 17.3 25.3 11.1 24.6 C 11.3 20.5 10.8 16.4 11.4 12.3 Z"
     id="path12" />
  <path
     fill="#f7b5ce"
     stroke="#f7b5ce"
     stroke-width="0.09375"
     d=" M 35.5 11.4 C 36.8 7.9 41.8 7.1 44.4 9.6 C 47.8 12.8 49.7 17.1 52.1 21.0 C 49.7 23.1 47.5 26.2 44.0 26.6 C 40.4 25.9 37.9 22.9 35.1 20.8 C 35.0 17.7 34.5 14.4 35.5 11.4 Z"
     id="path14" />
  <path
     fill="#fef2f6"
     stroke="#fef2f6"
     stroke-width="0.09375"
     d=" M 46.9 19.3 C 44.4 18.3 44.1 14.0 47.2 13.6 C 47.1 15.5 47.1 17.4 46.9 19.3 Z"
     id="path16" />
  <path
     fill="#5f1d28"
     stroke="#5f1d28"
     stroke-width="0.09375"
     d=" M 68.5 23.0 C 68.9 18.3 74.2 15.1 78.6 16.5 C 81.1 17.2 82.6 19.6 84.1 21.6 C 87.7 19.8 92.6 19.1 95.6 22.4 C 98.9 25.3 98.0 30.2 96.5 33.8 C 98.3 33.4 100.8 33.6 101.4 31.4 C 102.0 29.4 103.8 28.7 105.7 28.7 C 106.5 30.1 107.3 31.6 108.0 33.1 C 109.7 33.3 111.3 33.8 112.9 34.2 C 113.3 36.7 112.0 38.7 110.3 40.3 C 110.5 42.3 111.3 45.0 108.9 46.1 C 107.2 46.0 105.7 45.2 104.2 44.5 C 102.5 45.3 100.4 46.9 98.6 45.4 C 97.6 43.9 98.4 41.9 98.4 40.2 C 96.7 38.6 95.1 36.7 95.7 34.1 C 92.2 36.9 87.7 36.5 84.2 34.1 C 83.9 37.7 85.7 42.6 82.1 45.1 C 79.0 46.1 75.5 45.6 72.2 45.5 C 69.9 45.6 68.3 43.2 68.4 41.0 C 68.4 35.0 68.3 29.0 68.5 23.0 Z"
     id="path18" />
  <path
     fill="#ef3163"
     stroke="#ef3163"
     stroke-width="0.09375"
     d=" M 26.6 17.5 C 29.2 21.8 31.7 26.2 34.8 30.2 C 34.9 27.1 35.0 23.9 35.1 20.8 C 37.9 22.9 40.4 25.9 44.0 26.6 C 47.5 26.2 49.7 23.1 52.1 21.0 C 55.9 26.5 59.8 31.9 63.4 37.6 C 64.5 39.1 65.0 40.9 65.3 42.7 C 62.8 42.6 60.2 43.0 57.8 42.2 C 54.7 39.0 53.5 34.5 50.0 31.7 C 49.3 35.3 49.3 39.1 49.0 42.8 C 44.1 43.0 39.1 43.0 34.1 42.8 C 31.4 39.2 30.0 34.5 26.2 31.8 C 25.8 35.3 25.7 38.9 25.5 42.5 C 20.9 42.8 16.1 43.6 11.6 42.4 C 10.3 36.6 11.4 30.5 11.1 24.6 C 17.3 25.3 22.8 22.1 26.6 17.5 Z"
     id="path20" />
  <path
     fill="#fff9fb"
     stroke="#fff9fb"
     stroke-width="0.09375"
     d=" M 40.9 23.2 C 41.1 21.0 39.7 17.2 43.2 17.6 C 42.9 19.6 43.9 23.1 40.9 23.2 Z"
     id="path22" />
  <path
     fill="#f6b2cb"
     stroke="#f6b2cb"
     stroke-width="0.09375"
     d=" M 71.7 20.8 C 73.4 18.3 77.1 17.7 79.5 19.5 C 81.6 20.8 81.7 23.6 82.3 25.7 C 84.6 24.2 87.0 22.2 89.9 22.3 C 91.8 22.3 93.2 23.7 94.7 24.6 C 91.3 26.0 87.9 27.5 84.5 28.9 C 83.7 29.2 82.8 29.5 81.9 29.7 C 78.1 29.7 74.3 28.9 70.7 28.0 C 70.8 25.6 70.1 22.8 71.7 20.8 Z"
     id="path24" />
  <path
     fill="#fde7ee"
     stroke="#fde7ee"
     stroke-width="0.09375"
     d=" M 75.8 19.8 C 76.4 19.9 77.7 19.9 78.4 19.9 C 78.0 21.6 78.2 24.0 76.0 24.4 C 75.9 22.9 75.9 21.4 75.8 19.8 Z"
     id="path26" />
  <path
     fill="#ef3163"
     stroke="#ef3163"
     stroke-width="0.09375"
     d=" M 94.7 24.6 C 96.2 27.6 95.9 31.9 92.4 33.4 C 88.9 35.2 85.2 32.4 84.5 28.9 C 87.9 27.5 91.3 26.0 94.7 24.6 Z"
     id="path28" />
  <path
     fill="#601f29"
     stroke="#601f29"
     stroke-width="0.09375"
     d=" M 138.6 33.0 C 138.7 29.9 140.9 27.0 144.0 26.6 C 147.6 26.0 151.0 29.5 150.8 33.0 C 150.9 37.4 150.8 41.8 150.9 46.1 C 152.9 46.5 155.0 47.0 156.9 47.6 C 156.9 42.1 156.7 36.5 156.9 31.0 C 156.9 29.1 157.9 27.0 160.0 26.9 C 165.3 26.5 170.7 26.5 175.9 27.6 C 180.8 26.6 185.9 26.6 190.9 27.0 C 195.8 28.0 198.3 33.4 198.5 38.0 C 198.9 41.3 197.4 44.3 196.4 47.3 C 196.5 50.1 198.3 52.7 197.4 55.5 C 196.8 58.4 194.2 61.1 191.1 60.4 C 188.5 59.8 187.5 57.2 186.4 55.1 C 185.7 57.3 185.0 59.9 182.6 60.7 C 180.4 62.1 178.1 60.0 176.2 59.1 C 172.1 61.4 167.4 60.5 162.9 60.6 C 160.9 60.7 159.0 59.9 157.1 59.5 C 152.9 60.8 148.6 60.6 144.3 60.4 C 144.6 63.3 145.4 66.8 143.1 69.1 C 140.6 72.1 136.4 71.3 133.0 71.4 C 130.2 71.3 126.1 72.2 124.9 68.8 C 124.3 65.0 124.7 61.1 124.6 57.3 C 124.2 57.3 123.4 57.3 123.0 57.3 C 122.6 61.0 123.2 64.8 122.5 68.4 C 121.3 72.1 120.0 75.8 118.5 79.3 C 117.8 81.7 114.2 82.3 113.0 80.0 C 111.2 76.3 110.0 72.4 108.7 68.5 C 107.4 64.6 109.7 60.0 107.0 56.6 C 106.7 60.3 107.2 64.2 105.6 67.7 C 103.8 71.0 107.0 74.4 105.9 77.8 C 105.3 80.7 102.5 83.6 99.4 82.7 C 97.1 82.1 96.1 79.8 95.0 78.0 C 93.9 80.2 92.8 83.1 89.9 83.4 C 86.4 84.0 83.8 80.3 83.8 77.0 C 83.7 69.4 83.8 61.6 83.8 54.0 C 83.5 51.5 85.2 48.7 88.0 49.2 C 92.9 49.6 98.6 47.9 102.9 51.1 C 104.3 52.1 106.1 52.0 107.8 52.2 C 108.5 49.5 109.1 46.3 111.7 44.7 C 114.3 42.7 118.3 43.2 120.5 45.6 C 122.5 47.5 122.2 50.8 124.5 52.4 C 125.1 47.8 123.0 41.7 127.5 38.4 C 130.9 35.8 135.6 38.6 136.3 42.4 C 136.9 47.4 136.2 52.4 136.7 57.3 L 137.8 57.5 L 138.5 56.8 C 138.8 48.8 138.4 40.9 138.6 33.0 Z"
     id="path30" />
  <path
     fill="#ef3163"
     stroke="#ef3163"
     stroke-width="0.09375"
     d=" M 70.7 28.0 C 74.3 28.9 78.1 29.7 81.9 29.7 C 82.1 34.0 82.5 38.4 81.6 42.7 C 78.2 44.1 74.4 43.2 70.9 43.1 C 70.5 38.1 70.6 33.0 70.7 28.0 Z"
     id="path32" />
  <path
     fill="#f7b5cd"
     stroke="#f7b5cd"
     stroke-width="0.09375"
     d=" M 141.6 30.7 C 142.8 28.6 146.3 28.3 147.6 30.4 C 149.4 32.9 148.5 36.1 148.6 39.0 C 146.0 38.5 143.5 38.1 140.9 37.7 C 140.9 35.3 140.3 32.7 141.6 30.7 Z"
     id="path34" />
  <path
     fill="#f7b5cd"
     stroke="#f7b5cd"
     stroke-width="0.09375"
     d=" M 159.5 29.5 C 163.5 28.5 167.8 29.0 171.9 29.1 C 174.6 29.2 176.2 32.6 174.9 34.8 C 173.6 38.2 169.1 36.7 166.7 38.7 C 164.3 40.1 161.9 41.3 159.3 42.3 C 159.3 38.0 158.9 33.7 159.5 29.5 Z"
     id="path36" />
  <path
     fill="#f7b5ce"
     stroke="#f7b5ce"
     stroke-width="0.09375"
     d=" M 177.8 29.2 C 182.4 29.3 187.0 28.7 191.5 29.5 C 195.1 31.4 196.0 35.7 196.4 39.3 C 194.5 39.4 192.6 39.4 190.7 39.4 C 189.0 37.7 186.6 37.0 184.3 36.6 C 182.0 36.1 179.8 35.5 177.6 35.0 C 177.6 33.1 177.7 31.1 177.8 29.2 Z"
     id="path38" />
  <path
     fill="#fff700"
     stroke="#fff700"
     stroke-width="0.09375"
     d=" M 104.2 30.9 C 104.9 32.4 105.7 34.0 106.4 35.5 C 107.9 35.7 109.5 35.8 111.1 36.0 C 109.9 37.1 108.6 38.1 107.4 39.1 C 107.7 40.7 108.0 42.3 108.3 43.9 C 106.9 43.1 105.6 42.3 104.2 41.6 C 102.9 42.4 101.6 43.2 100.2 44.0 C 100.5 42.3 100.7 40.7 101.0 39.1 C 99.9 38.1 98.9 37.0 97.9 36.0 C 99.4 35.8 100.9 35.6 102.4 35.4 C 103.0 33.9 103.6 32.4 104.2 30.9 Z"
     id="path40" />
  <path
     fill="#ef3163"
     stroke="#ef3163"
     stroke-width="0.09375"
     d=" M 177.6 35.0 C 179.8 35.5 182.0 36.1 184.3 36.6 C 184.3 38.1 184.3 39.5 184.4 41.0 C 186.5 40.5 188.6 39.9 190.7 39.4 C 192.6 39.4 194.5 39.4 196.4 39.3 C 195.8 41.9 194.8 44.5 194.2 47.1 C 194.2 50.5 196.4 54.1 194.3 57.3 C 193.0 57.7 191.7 57.9 190.4 58.1 C 189.1 55.1 187.9 52.1 186.8 49.1 C 186.2 49.1 184.9 48.9 184.2 48.9 C 183.8 51.8 184.6 55.3 182.8 57.9 C 181.2 59.9 178.0 58.2 177.9 55.9 C 177.1 49.0 177.8 42.0 177.6 35.0 Z"
     id="path42" />
  <path
     fill="#c78b8c"
     stroke="#c78b8c"
     stroke-width="0.09375"
     d=" M 117.9 40.1 C 115.4 40.9 115.3 36.9 117.5 36.6 C 118.2 37.7 118.3 38.9 117.9 40.1 Z"
     id="path44" />
  <path
     fill="#62222b"
     stroke="#62222b"
     stroke-width="0.09375"
     d=" M 184.3 36.6 C 186.6 37.0 189.0 37.7 190.7 39.4 C 188.6 39.9 186.5 40.5 184.4 41.0 C 184.3 39.5 184.3 38.1 184.3 36.6 Z"
     id="path46" />
  <path
     fill="#b6a0a1"
     stroke="#b6a0a1"
     stroke-width="0.09375"
     d=" M 201.8 41.0 C 201.8 39.6 202.1 38.2 202.9 37.0 C 203.5 38.6 204.2 40.3 204.0 42.1 C 203.4 41.8 202.4 41.3 201.8 41.0 Z"
     id="path48" />
  <path
     fill="#e26696"
     stroke="#e26696"
     stroke-width="0.09375"
     d=" M 86.5 38.1 C 89.0 38.1 91.5 38.1 94.0 38.0 C 95.9 40.6 96.3 43.9 96.7 47.0 C 92.9 47.1 89.1 46.7 85.4 47.4 C 81.9 48.7 81.8 53.0 81.4 56.1 C 78.7 53.1 75.9 50.4 72.8 48.0 C 76.4 47.6 80.3 48.5 83.6 46.6 C 86.6 44.8 86.2 41.1 86.5 38.1 Z"
     id="path50" />
  <path
     fill="#ef3163"
     stroke="#ef3163"
     stroke-width="0.09375"
     d=" M 140.9 37.7 C 143.5 38.1 146.0 38.5 148.6 39.0 C 148.6 42.2 148.7 45.5 148.8 48.7 C 150.8 48.9 152.7 48.9 154.7 49.3 C 158.0 51.0 157.7 57.2 153.9 58.0 C 149.6 58.7 145.3 58.3 141.0 58.1 C 140.7 51.3 140.9 44.5 140.9 37.7 Z"
     id="path52" />
  <path
     fill="#ef3163"
     stroke="#ef3163"
     stroke-width="0.09375"
     d=" M 159.3 42.3 C 161.9 41.3 164.3 40.1 166.7 38.7 C 169.1 39.2 171.6 39.1 173.9 40.2 C 176.1 41.9 175.8 45.9 173.4 47.4 C 171.3 48.0 169.2 48.0 167.0 48.2 C 167.0 48.6 167.0 49.3 167.0 49.7 C 169.5 49.9 172.0 49.9 174.3 50.7 C 175.7 52.9 175.9 57.2 172.8 58.0 C 168.3 58.8 163.7 58.3 159.2 58.0 C 159.0 52.8 158.9 47.5 159.3 42.3 Z"
     id="path54" />
  <path
     fill="#8dccf5"
     stroke="#8dccf5"
     stroke-width="0.09375"
     d=" M 88.4 40.1 C 90.2 40.4 92.7 39.3 93.7 41.3 C 93.9 42.5 94.1 43.7 94.2 45.0 C 91.9 45.0 89.7 45.0 87.4 45.0 C 87.8 43.4 88.1 41.8 88.4 40.1 Z"
     id="path56" />
  <path
     fill="#f7b4cc"
     stroke="#f7b4cc"
     stroke-width="0.09375"
     d=" M 127.3 42.3 C 127.7 39.6 133.0 38.4 133.3 41.5 C 132.4 45.8 130.6 49.9 127.9 53.4 C 126.3 49.9 126.5 45.9 127.3 42.3 Z"
     id="path58" />
  <path
     fill="#8ccef6"
     stroke="#8ccef6"
     stroke-width="0.09375"
     d=" M 201.8 41.0 C 202.4 41.3 203.4 41.8 204.0 42.1 C 203.9 43.4 203.9 44.6 203.9 45.9 C 202.7 47.0 202.3 48.6 202.8 50.2 C 202.1 54.1 203.2 58.0 203.0 61.9 C 202.9 62.5 202.6 63.7 202.4 64.3 C 200.9 66.5 198.8 68.9 195.9 69.0 C 193.7 69.3 191.7 68.1 189.9 67.1 C 188.0 68.1 186.1 69.4 183.9 69.8 C 181.5 69.7 179.2 68.5 176.7 68.8 C 170.4 69.0 164.0 68.9 157.6 68.8 C 155.0 68.8 152.5 68.8 149.9 68.9 C 149.9 70.7 149.8 72.6 149.7 74.5 C 147.9 76.3 146.0 78.1 144.0 79.8 C 138.2 79.9 132.4 79.9 126.7 79.1 C 125.7 81.5 124.8 84.0 123.8 86.4 C 123.3 87.7 122.8 88.9 122.2 90.2 C 118.8 91.0 115.3 90.5 112.3 88.6 C 113.8 86.0 109.3 84.8 110.1 87.9 C 107.8 89.6 105.2 91.3 102.2 90.7 C 97.3 90.0 92.6 91.5 87.8 91.8 C 86.7 90.4 85.7 89.1 84.6 87.8 C 83.3 90.0 82.1 92.2 80.9 94.4 C 76.5 98.6 71.4 101.9 66.3 105.1 C 60.0 105.9 53.6 105.8 47.3 106.0 C 47.1 106.4 46.6 107.3 46.4 107.7 C 44.6 105.2 42.4 103.2 40.3 101.1 C 40.4 100.8 40.7 100.2 40.8 99.9 C 45.2 102.0 50.3 101.5 55.0 101.4 C 66.3 101.1 76.4 93.8 82.1 84.4 C 84.0 85.5 85.9 86.7 88.1 87.2 C 90.5 87.3 92.8 86.2 95.2 85.9 C 97.6 85.9 100.1 86.8 102.5 86.5 C 105.1 85.7 106.9 83.7 108.9 82.0 C 111.5 83.8 114.4 86.3 117.7 85.0 C 121.9 83.6 122.4 78.6 124.4 75.3 C 130.6 74.3 137.2 76.7 143.1 74.1 C 146.8 72.3 147.9 67.9 149.3 64.3 C 156.8 63.9 164.3 64.9 171.7 64.4 C 176.2 64.1 180.6 65.3 185.0 64.0 C 188.2 63.1 191.5 64.6 194.8 63.9 C 199.6 62.4 202.0 56.8 201.2 52.0 C 200.5 48.3 201.4 44.7 201.8 41.0 Z"
     id="path60" />
  <path
     fill="#ef3163"
     stroke="#ef3163"
     stroke-width="0.09375"
     d=" M 127.9 53.4 C 130.6 49.9 132.4 45.8 133.3 41.5 C 135.3 47.3 133.9 53.5 134.3 59.5 C 136.4 59.7 138.6 59.6 140.6 60.3 C 143.4 62.2 143.0 67.5 139.7 68.7 C 135.6 69.4 131.3 69.0 127.1 68.8 C 127.0 63.7 126.3 58.3 127.9 53.4 Z"
     id="path62" />
  <path
     fill="#00b5ef"
     stroke="#00b5ef"
     stroke-width="0.09375"
     d=" M 111.0 49.2 C 112.0 44.8 119.1 44.7 120.1 49.2 C 121.1 53.7 120.4 58.4 120.5 63.0 C 117.2 62.1 113.8 62.2 110.6 63.0 C 110.6 58.4 109.9 53.7 111.0 49.2 Z"
     id="path64" />
  <path
     fill="#ffceb5"
     stroke="#ffceb5"
     stroke-width="0.09375"
     d=" M 202.8 50.2 C 202.3 48.6 202.7 47.0 203.9 45.9 C 204.4 47.4 204.3 49.2 202.8 50.2 Z"
     id="path66" />
  <path
     fill="#8ccef7"
     stroke="#8ccef7"
     stroke-width="0.09375"
     d=" M 28.7 48.0 C 32.8 48.0 36.8 49.4 41.0 49.4 C 40.7 50.8 40.5 52.3 40.3 53.7 C 38.5 53.6 36.7 53.5 34.9 53.3 C 33.9 52.9 33.0 52.5 32.0 52.1 C 27.2 55.1 21.3 53.7 16.0 53.9 C 12.4 54.3 9.8 51.5 8.4 48.6 C 15.1 49.3 22.0 49.7 28.7 48.0 Z"
     id="path68" />
  <path
     fill="#5c1c26"
     stroke="#5c1c26"
     stroke-width="0.09375"
     d=" M 46.4 48.4 C 50.1 47.2 54.2 48.0 58.0 47.8 C 64.9 47.5 72.7 49.0 77.4 54.6 C 81.1 58.8 82.0 64.6 81.6 70.0 C 81.3 79.7 75.8 89.5 66.9 93.9 C 60.4 98.1 52.4 97.4 45.0 97.2 C 41.6 96.9 38.9 93.4 40.0 90.1 C 39.9 86.6 43.4 85.2 45.2 82.9 C 45.3 74.3 45.3 65.6 45.2 57.0 C 45.3 54.2 43.5 50.3 46.4 48.4 Z"
     id="path70" />
  <path
     fill="#3d6181"
     stroke="#3d6181"
     stroke-width="0.09375"
     d=" M 113.1 49.2 C 114.7 49.2 116.3 49.2 118.0 49.2 C 118.0 51.3 117.5 53.3 116.2 55.0 L 115.2 55.0 C 112.8 54.0 113.2 51.3 113.1 49.2 Z"
     id="path72" />
  <path
     fill="#f7b5ce"
     stroke="#f7b5ce"
     stroke-width="0.09375"
     d=" M 47.0 50.2 C 55.4 49.8 64.5 48.6 72.1 52.9 C 76.7 55.4 79.1 60.4 79.5 65.5 C 74.7 64.4 70.6 61.8 66.3 59.5 C 64.0 58.9 61.5 58.1 59.2 59.1 C 55.6 60.8 51.8 62.4 47.7 62.7 C 47.5 59.7 47.3 56.8 47.1 53.8 C 47.1 52.6 47.1 51.4 47.0 50.2 Z"
     id="path74" />
  <path
     fill="#ca193b"
     stroke="#ca193b"
     stroke-width="0.09375"
     d=" M 114.0 49.8 C 114.8 49.8 116.5 49.9 117.4 50.0 C 117.1 51.8 116.2 53.4 114.2 53.5 C 114.2 52.6 114.0 50.7 114.0 49.8 Z"
     id="path76" />
  <path
     fill="#f7b5ce"
     stroke="#f7b5ce"
     stroke-width="0.09375"
     d=" M 86.0 51.8 C 91.2 51.9 97.1 50.1 101.7 53.2 C 98.9 55.5 95.9 57.7 93.2 60.1 C 91.2 62.5 88.8 64.5 85.9 65.7 C 85.7 61.0 85.7 56.4 86.0 51.8 Z"
     id="path78" />
  <path
     fill="#ef3163"
     stroke="#ef3163"
     stroke-width="0.09375"
     d=" M 101.7 53.2 L 102.2 52.7 C 103.3 55.4 104.7 58.1 104.7 61.1 C 104.9 64.0 103.3 66.5 102.6 69.2 C 102.5 72.3 104.4 75.3 103.4 78.4 C 102.9 80.3 99.9 81.2 98.7 79.4 C 97.0 76.8 96.5 73.7 94.8 71.1 C 94.3 71.1 93.5 71.1 93.0 71.1 C 92.4 73.9 92.5 76.8 91.7 79.6 C 90.6 82.0 86.8 81.2 86.4 78.6 C 85.4 74.4 85.9 70.0 85.9 65.7 C 88.8 64.5 91.2 62.5 93.2 60.1 C 93.2 60.8 93.1 62.1 93.0 62.8 C 94.6 62.8 96.2 62.9 97.8 62.9 C 97.9 62.1 97.9 60.5 97.9 59.7 C 96.4 59.8 94.8 60.0 93.2 60.1 C 95.9 57.7 98.9 55.5 101.7 53.2 Z"
     id="path80" />
  <path
     fill="#ef3163"
     stroke="#ef3163"
     stroke-width="0.09375"
     d=" M 47.1 53.8 C 47.3 56.8 47.5 59.7 47.7 62.7 C 51.8 62.4 55.6 60.8 59.2 59.1 C 53.5 64.3 52.5 73.8 57.0 80.1 C 59.3 83.6 64.9 83.7 67.2 80.2 C 71.9 74.1 70.3 65.5 66.3 59.5 C 70.6 61.8 74.7 64.4 79.5 65.5 C 80.4 75.7 75.9 86.7 66.7 91.8 C 60.2 95.7 52.4 95.5 45.1 95.0 C 42.7 94.9 41.4 92.3 42.0 90.1 C 42.3 87.4 45.4 86.6 47.1 84.8 C 47.6 74.5 47.1 64.1 47.1 53.8 Z"
     id="path82" />
  <path
     fill="#05ace3"
     stroke="#05ace3"
     stroke-width="0.09375"
     d=" M 105.6 54.4 C 106.6 53.5 108.3 53.6 109.3 54.4 C 109.3 56.0 105.5 56.0 105.6 54.4 Z"
     id="path84" />
  <path
     fill="#02b0e9"
     stroke="#02b0e9"
     stroke-width="0.09375"
     d=" M 122.5 54.3 C 123.1 53.3 125.6 53.5 125.3 54.9 C 124.7 56.0 122.2 55.8 122.5 54.3 Z"
     id="path86" />
  <path
     fill="#a4253f"
     stroke="#a4253f"
     stroke-width="0.09375"
     d=" M 113.6 55.6 C 114.0 55.4 114.8 55.2 115.2 55.0 L 116.2 55.0 L 117.3 55.0 C 117.4 56.5 117.4 57.9 117.3 59.4 C 114.8 59.9 112.4 58.3 113.6 55.6 Z"
     id="path88" />
  <path
     fill="#feebf1"
     stroke="#feebf1"
     stroke-width="0.09375"
     d=" M 50.3 55.7 C 51.6 56.3 52.6 57.3 52.8 58.8 C 52.0 59.3 51.1 59.8 50.3 60.3 C 50.3 58.8 50.3 57.2 50.3 55.7 Z"
     id="path90" />
  <path
     fill="#632129"
     stroke="#632129"
     stroke-width="0.09375"
     d=" M 59.2 59.1 C 61.5 58.1 64.0 58.9 66.3 59.5 C 70.3 65.5 71.9 74.1 67.2 80.2 C 64.9 83.7 59.3 83.6 57.0 80.1 C 52.5 73.8 53.5 64.3 59.2 59.1 Z"
     id="path92" />
  <path
     fill="#fffefe"
     stroke="#fffefe"
     stroke-width="0.09375"
     d=" M 58.9 61.9 C 60.4 59.9 62.9 60.4 65.0 61.0 C 57.8 61.7 56.9 70.6 58.9 76.1 C 59.7 79.0 62.7 79.9 65.1 81.0 C 62.8 81.2 60.0 81.7 58.5 79.5 C 54.7 74.5 54.8 66.6 58.9 61.9 Z"
     id="path94" />
  <path
     fill="#64202b"
     stroke="#64202b"
     stroke-width="0.09375"
     d=" M 93.2 60.1 C 94.8 60.0 96.4 59.8 97.9 59.7 C 97.9 60.5 97.9 62.1 97.8 62.9 C 96.2 62.9 94.6 62.8 93.0 62.8 C 93.1 62.1 93.2 60.8 93.2 60.1 Z"
     id="path96" />
  <path
     fill="#c8aa7b"
     stroke="#c8aa7b"
     stroke-width="0.09375"
     d=" M 202.4 64.3 C 202.6 63.7 202.9 62.5 203.0 61.9 C 202.9 62.5 202.6 63.7 202.4 64.3 Z"
     id="path98" />
  <path
     fill="#c5c4c4"
     stroke="#c5c4c4"
     stroke-width="0.09375"
     d=" M 111.9 63.9 C 114.7 62.0 118.3 63.0 120.7 65.1 C 117.1 65.6 113.6 66.8 110.8 69.0 C 110.9 67.3 110.1 65.1 111.9 63.9 Z"
     id="path100" />
  <path
     fill="#beb7b8"
     stroke="#beb7b8"
     stroke-width="0.09375"
     d=" M 113.0 69.1 C 114.7 66.5 118.0 66.7 120.7 66.9 C 118.7 69.9 114.8 71.1 112.8 74.2 C 112.7 72.5 111.4 70.4 113.0 69.1 Z"
     id="path102" />
  <path
     fill="#ff537b"
     stroke="#ff537b"
     stroke-width="0.09375"
     d=" M 149.9 68.9 C 152.5 68.8 155.0 68.8 157.6 68.8 C 168.1 77.6 177.3 88.2 183.3 100.6 C 188.2 107.9 190.0 116.7 191.6 125.3 C 192.3 129.8 191.9 134.4 192.0 139.0 C 192.5 153.0 189.4 167.4 182.4 179.7 C 181.0 180.1 179.6 180.4 178.3 181.2 C 176.2 184.0 175.5 187.5 173.0 190.0 C 170.2 192.9 167.0 195.5 164.0 198.2 C 164.0 195.9 164.0 193.7 164.0 191.5 C 176.4 178.1 183.9 160.3 184.8 142.1 C 185.4 121.7 178.2 100.8 163.9 86.1 C 159.6 81.8 155.0 77.7 149.7 74.5 C 149.8 72.6 149.9 70.7 149.9 68.9 Z"
     id="path104" />
  <path
     fill="#beb6b7"
     stroke="#beb6b7"
     stroke-width="0.09375"
     d=" M 115.8 79.6 C 111.9 76.7 115.0 70.9 119.1 70.2 C 118.5 73.5 117.4 76.6 115.8 79.6 Z"
     id="path106" />
  <path
     fill="#0b9fb3"
     stroke="#0b9fb3"
     stroke-width="0.09375"
     d=" M 144.0 79.8 C 146.0 78.1 147.9 76.3 149.7 74.5 C 155.0 77.7 159.6 81.8 163.9 86.1 C 178.2 100.8 185.4 121.7 184.8 142.1 C 183.9 160.3 176.4 178.1 164.0 191.5 C 161.4 194.1 158.7 196.6 155.9 198.9 C 149.6 203.9 142.6 207.8 135.1 210.6 C 132.8 211.5 130.4 212.4 128.0 213.1 C 114.9 216.7 100.9 216.9 87.7 213.4 C 71.4 209.0 56.6 199.1 46.3 185.7 C 38.9 175.3 32.9 163.5 31.3 150.7 C 28.3 133.7 31.9 116.0 40.3 101.1 C 42.4 103.2 44.6 105.2 46.4 107.7 C 40.0 117.5 38.0 129.5 38.4 141.0 C 37.9 148.9 40.4 156.6 43.2 163.9 C 47.8 175.7 55.7 186.2 65.8 193.9 C 71.1 197.8 77.1 200.8 83.0 203.5 C 95.8 208.3 109.9 209.0 123.2 206.2 C 125.5 205.7 127.8 205.0 130.1 204.2 C 143.3 199.6 155.7 191.9 163.8 180.3 C 167.1 175.1 170.0 169.8 172.3 164.1 C 177.3 151.4 178.3 137.1 175.3 123.8 C 173.9 117.8 171.8 112.0 168.9 106.6 C 168.5 105.8 168.0 105.1 167.6 104.3 C 165.5 100.4 163.2 96.6 160.1 93.4 C 155.5 88.0 150.0 83.6 144.0 79.8 Z"
     id="path108" />
  <path
     fill="#efd6bd"
     stroke="#efd6bd"
     stroke-width="0.09375"
     d=" M 123.8 86.4 C 124.8 84.0 125.7 81.5 126.7 79.1 C 132.4 79.9 138.2 79.9 144.0 79.8 C 150.0 83.6 155.5 88.0 160.1 93.4 C 158.1 98.5 161.7 105.1 167.6 104.3 C 168.0 105.1 168.5 105.8 168.9 106.6 C 166.7 107.0 164.3 107.2 162.2 108.3 C 159.8 109.7 158.2 112.1 156.5 114.2 C 155.1 111.9 153.5 109.7 151.8 107.6 C 154.3 105.6 157.7 103.5 157.7 99.9 C 158.1 95.3 153.7 91.2 149.1 92.1 C 145.3 92.3 143.7 96.1 142.4 99.0 C 139.2 96.7 135.7 94.8 132.2 93.1 C 131.4 91.5 130.8 89.8 129.6 88.5 C 127.8 87.4 125.8 87.0 123.8 86.4 Z"
     id="path110" />
  <path
     fill="#ddd2c5"
     stroke="#ddd2c5"
     stroke-width="0.09375"
     d=" M 110.1 87.9 C 109.3 84.8 113.8 86.0 112.3 88.6 C 111.8 88.4 110.7 88.1 110.1 87.9 Z"
     id="path112" />
  <path
     fill="#fef5e5"
     stroke="#fef5e5"
     stroke-width="0.09375"
     d=" M 123.8 86.4 C 125.8 87.0 127.8 87.4 129.6 88.5 C 130.8 89.8 131.4 91.5 132.2 93.1 C 129.0 91.8 125.7 90.6 122.2 90.2 C 122.8 88.9 123.3 87.7 123.8 86.4 Z"
     id="path114" />
  <path
     fill="#f0ebde"
     stroke="#f0ebde"
     stroke-width="0.09375"
     d=" M 80.9 94.4 C 82.1 92.2 83.3 90.0 84.6 87.8 C 85.7 89.1 86.7 90.4 87.8 91.8 C 85.4 92.5 83.2 93.4 80.9 94.4 Z"
     id="path116" />
  <path
     fill="#8d4231"
     stroke="#8d4231"
     stroke-width="0.09375"
     d=" M 102.2 90.7 C 105.2 91.3 107.8 89.6 110.1 87.9 C 110.7 88.1 111.8 88.4 112.3 88.6 C 115.3 90.5 118.8 91.0 122.2 90.2 C 125.7 90.6 129.0 91.8 132.2 93.1 C 135.7 94.8 139.2 96.7 142.4 99.0 C 145.8 101.5 148.9 104.5 151.8 107.6 C 153.5 109.7 155.1 111.9 156.5 114.2 C 157.9 116.5 158.8 119.3 160.8 121.2 C 163.4 122.7 166.4 123.4 169.0 125.0 C 169.9 126.4 170.3 127.9 170.8 129.5 C 173.8 140.5 172.7 152.3 167.8 162.7 C 166.1 164.8 163.4 165.4 160.9 166.0 C 158.5 166.3 156.1 167.1 154.8 169.3 C 151.7 173.5 148.0 177.2 143.7 180.2 C 139.5 183.0 134.9 185.1 130.1 186.6 C 124.2 188.6 118.0 189.6 111.8 189.9 C 104.0 190.1 96.0 189.6 88.4 187.6 C 83.9 186.4 79.5 184.7 75.4 182.5 C 72.7 180.9 70.1 179.1 67.7 177.0 C 64.6 174.3 62.1 171.0 59.8 167.6 C 56.5 165.7 52.3 166.0 49.1 163.9 C 42.1 153.0 41.6 138.9 45.8 126.8 C 46.8 123.6 50.8 123.6 53.3 122.2 C 56.1 121.5 57.2 118.6 58.5 116.4 C 60.6 112.4 63.4 108.6 66.3 105.1 C 71.4 101.9 76.5 98.6 80.9 94.4 C 83.2 93.4 85.4 92.5 87.8 91.8 C 92.6 91.5 97.3 90.0 102.2 90.7 Z"
     id="path118" />
  <path
     fill="#f7214a"
     stroke="#f7214a"
     stroke-width="0.09375"
     d=" M 99.4 92.4 C 110.4 90.8 121.9 92.2 132.0 97.1 C 146.1 103.5 157.2 116.8 159.6 132.4 C 161.2 144.5 158.8 157.5 151.3 167.4 C 143.1 178.5 129.5 184.5 116.0 186.0 C 101.0 187.6 84.8 184.8 72.5 175.4 C 55.2 162.2 51.2 135.5 62.1 117.0 C 69.8 103.6 84.2 94.7 99.4 92.4 Z"
     id="path120" />
  <path
     fill="#fff7e7"
     stroke="#fff7e7"
     stroke-width="0.09375"
     d=" M 142.4 99.0 C 143.7 96.1 145.3 92.3 149.1 92.1 C 153.7 91.2 158.1 95.3 157.7 99.9 C 157.7 103.5 154.3 105.6 151.8 107.6 C 148.9 104.5 145.8 101.5 142.4 99.0 Z"
     id="path122" />
  <path
     fill="#fef6e6"
     stroke="#fef6e6"
     stroke-width="0.09375"
     d=" M 160.1 93.4 C 163.2 96.6 165.5 100.4 167.6 104.3 C 161.7 105.1 158.1 98.5 160.1 93.4 Z"
     id="path124" />
  <path
     fill="#ff517a"
     stroke="#ff517a"
     stroke-width="0.09375"
     d=" M 28.2 169.9 C 18.0 145.7 21.2 116.9 34.9 94.6 C 36.9 96.3 38.8 98.2 40.8 99.9 C 40.7 100.2 40.4 100.8 40.3 101.1 C 31.9 116.0 28.3 133.7 31.3 150.7 C 32.9 163.5 38.9 175.3 46.3 185.7 C 56.6 199.1 71.4 209.0 87.7 213.4 C 100.9 216.9 114.9 216.7 128.0 213.1 C 128.2 215.4 128.4 217.7 128.6 220.0 L 80.8 220.0 C 71.9 216.5 62.7 212.9 55.5 206.4 C 49.9 201.8 44.3 197.0 40.2 190.9 C 35.5 184.3 31.5 177.3 28.2 169.9 Z"
     id="path126" />
  <path
     fill="#ff6b7b"
     stroke="#ff6b7b"
     stroke-width="0.09375"
     d=" M 84.4 98.4 C 87.9 97.1 92.4 99.4 92.6 103.3 C 93.6 107.5 89.2 111.6 85.1 110.1 C 79.3 109.3 79.1 100.1 84.4 98.4 Z"
     id="path128" />
  <path
     fill="#efd6bd"
     stroke="#efd6bd"
     stroke-width="0.09375"
     d=" M 47.3 106.0 C 53.6 105.8 60.0 105.9 66.3 105.1 C 63.4 108.6 60.6 112.4 58.5 116.4 C 57.2 118.6 56.1 121.5 53.3 122.2 C 50.8 123.6 46.8 123.6 45.8 126.8 C 41.6 138.9 42.1 153.0 49.1 163.9 C 52.3 166.0 56.5 165.7 59.8 167.6 C 56.4 169.2 52.2 171.5 52.8 176.0 C 52.3 180.9 57.5 184.1 61.9 183.0 C 65.2 182.8 66.4 179.5 67.7 177.0 C 70.1 179.1 72.7 180.9 75.4 182.5 C 70.8 184.9 67.2 188.9 65.8 193.9 C 55.7 186.2 47.8 175.7 43.2 163.9 C 40.4 156.6 37.9 148.9 38.4 141.0 C 38.0 129.5 40.0 117.5 46.4 107.7 C 46.6 107.3 47.1 106.4 47.3 106.0 Z"
     id="path130" />
  <path
     fill="#974d1c"
     stroke="#974d1c"
     stroke-width="0.09375"
     d=" M 105.5 106.5 C 115.1 106.0 125.0 108.5 132.8 114.2 C 140.5 119.5 146.3 127.8 147.8 137.1 C 149.0 145.9 147.7 155.3 142.8 162.8 C 137.6 170.8 128.8 175.7 119.6 177.6 C 110.1 179.5 100.1 179.1 90.8 176.1 C 83.0 173.6 75.8 168.4 72.0 161.0 C 68.1 153.8 67.3 145.2 68.3 137.2 C 70.0 126.9 76.8 117.9 85.6 112.6 C 91.7 109.2 98.5 106.9 105.5 106.5 Z"
     id="path132" />
  <path
     fill="#fff7e7"
     stroke="#fff7e7"
     stroke-width="0.09375"
     d=" M 162.2 108.3 C 164.3 107.2 166.7 107.0 168.9 106.6 C 171.8 112.0 173.9 117.8 175.3 123.8 C 175.2 125.1 175.1 126.4 175.1 127.6 C 173.6 128.2 172.2 128.8 170.8 129.5 C 170.3 127.9 169.9 126.4 169.0 125.0 C 166.4 123.4 163.4 122.7 160.8 121.2 C 158.8 119.3 157.9 116.5 156.5 114.2 C 158.2 112.1 159.8 109.7 162.2 108.3 Z"
     id="path134" />
  <path
     fill="#ad6300"
     stroke="#ad6300"
     stroke-width="0.09375"
     d=" M 78.0 122.0 C 85.1 113.0 96.8 108.9 108.0 108.4 C 119.6 108.8 131.5 113.3 138.8 122.7 C 137.7 123.3 136.5 123.9 135.4 124.5 C 133.3 122.9 131.1 120.4 128.1 121.0 C 125.0 121.6 122.7 124.1 121.7 127.1 C 124.7 125.5 127.8 121.9 131.6 123.5 C 133.2 123.9 132.9 125.9 131.5 126.4 C 123.3 130.5 114.1 132.1 105.0 131.6 C 107.7 128.0 110.6 124.3 112.0 119.8 C 104.7 120.8 97.3 124.9 90.0 121.9 C 86.2 120.1 82.0 121.9 78.0 122.0 Z"
     id="path136" />
  <path
     fill="#ff6b7b"
     stroke="#ff6b7b"
     stroke-width="0.09375"
     d=" M 72.4 110.4 C 77.0 108.1 79.6 116.4 74.9 117.1 C 70.7 118.6 68.9 111.9 72.4 110.4 Z"
     id="path138" />
  <path
     fill="#fef3e3"
     stroke="#fef3e3"
     stroke-width="0.09375"
     d=" M 40.1 127.3 C 40.7 122.9 41.9 118.5 44.0 114.5 C 45.8 119.1 44.3 124.6 40.1 127.3 Z"
     id="path140" />
  <path
     fill="#ffceb5"
     stroke="#ffceb5"
     stroke-width="0.09375"
     d=" M 93.4 124.9 C 98.8 124.6 104.0 123.4 109.2 122.2 C 107.3 126.2 104.1 129.5 101.7 133.2 C 108.9 133.6 116.3 133.3 123.3 131.3 C 129.1 129.4 134.8 127.1 140.0 123.9 C 150.3 137.3 147.8 158.9 134.1 169.1 C 124.6 176.1 112.1 177.6 100.6 176.3 C 92.2 175.2 83.5 172.3 77.9 165.6 C 81.1 165.4 84.3 164.9 87.3 163.6 C 93.6 161.7 97.9 155.6 98.0 149.0 C 98.7 142.3 96.4 134.1 89.6 131.2 C 84.0 129.1 78.7 133.9 76.8 138.8 C 73.7 146.0 75.3 154.5 80.1 160.6 C 78.6 161.5 77.2 162.4 75.7 163.4 C 67.8 151.5 67.8 134.7 76.4 123.2 C 77.8 123.4 79.2 123.6 80.6 123.8 C 80.5 124.4 80.4 125.6 80.4 126.2 C 84.6 123.1 90.7 124.0 94.1 127.9 C 93.9 126.9 93.7 125.9 93.4 124.9 Z"
     id="path142" />
  <path
     fill="#efd6bd"
     stroke="#efd6bd"
     stroke-width="0.09375"
     d=" M 175.3 123.8 C 178.3 137.1 177.3 151.4 172.3 164.1 C 170.8 163.6 169.3 163.1 167.8 162.7 C 172.7 152.3 173.8 140.5 170.8 129.5 C 172.2 128.8 173.6 128.2 175.1 127.6 C 175.1 126.4 175.2 125.1 175.3 123.8 Z"
     id="path144" />
  <path
     fill="#f7214a"
     stroke="#f7214a"
     stroke-width="0.09375"
     d=" M 49.3 127.4 C 51.5 126.6 53.7 125.9 56.0 125.2 C 54.5 131.9 53.5 138.9 54.4 145.8 C 54.9 151.8 57.2 157.4 59.0 163.0 C 56.5 162.6 54.0 162.1 51.5 161.5 C 45.9 151.1 45.3 138.5 49.3 127.4 Z"
     id="path146" />
  <path
     fill="#f7214a"
     stroke="#f7214a"
     stroke-width="0.09375"
     d=" M 160.2 125.0 C 162.3 125.8 164.5 126.4 166.3 127.7 C 170.7 138.6 169.3 151.0 164.6 161.6 C 162.1 162.1 159.5 162.6 157.0 163.0 C 159.0 157.1 161.4 151.3 161.8 145.0 C 162.6 138.3 161.6 131.6 160.2 125.0 Z"
     id="path148" />
  <path
     fill="#8d4231"
     stroke="#8d4231"
     stroke-width="0.09375"
     d=" M 76.8 138.8 C 78.7 133.9 84.0 129.1 89.6 131.2 C 96.4 134.1 98.7 142.3 98.0 149.0 C 97.9 155.6 93.6 161.7 87.3 163.6 C 87.0 163.3 86.5 162.5 86.2 162.2 C 86.8 161.9 87.9 161.5 88.5 161.2 C 96.5 158.2 98.0 147.6 95.6 140.4 C 94.3 135.6 90.1 132.2 85.2 131.7 C 95.1 138.0 95.4 153.4 87.0 161.1 C 84.7 160.9 82.4 160.8 80.1 160.6 C 75.3 154.5 73.7 146.0 76.8 138.8 Z"
     id="path150" />
  <path
     fill="#8d4231"
     stroke="#8d4231"
     stroke-width="0.09375"
     d=" M 126.3 131.3 C 131.0 129.4 136.1 132.5 138.3 136.6 C 142.1 143.3 141.8 152.1 137.3 158.4 C 135.3 161.5 131.3 162.3 127.9 162.9 C 122.5 162.3 119.0 156.9 118.1 152.0 C 116.4 144.4 118.6 134.7 126.3 131.3 Z"
     id="path152" />
  <path
     fill="#ffffff"
     stroke="#ffffff"
     stroke-width="0.09375"
     d=" M 85.2 131.7 C 90.1 132.2 94.3 135.6 95.6 140.4 C 98.0 147.6 96.5 158.2 88.5 161.2 C 88.1 161.2 87.4 161.1 87.0 161.1 C 95.4 153.4 95.1 138.0 85.2 131.7 Z"
     id="path154" />
  <path
     fill="#ffffff"
     stroke="#ffffff"
     stroke-width="0.09375"
     d=" M 128.0 131.9 C 130.5 132.3 133.3 132.8 135.1 134.9 C 141.8 142.2 140.8 156.0 131.8 161.1 C 130.9 161.2 129.2 161.5 128.4 161.6 C 130.3 159.1 132.8 156.9 133.8 153.9 C 136.6 146.3 134.7 136.9 128.0 131.9 Z"
     id="path156" />
  <path
     fill="#080808"
     stroke="#080808"
     stroke-width="0.09375"
     d=" M 82.4 134.4 C 84.4 133.6 86.7 134.5 87.9 136.1 C 91.5 140.4 92.0 146.5 90.9 151.9 C 90.2 154.7 88.8 157.7 86.1 159.3 C 83.8 160.4 81.2 159.1 79.7 157.2 C 76.8 153.6 76.5 148.5 76.9 144.0 C 77.4 140.3 78.9 136.1 82.4 134.4 Z"
     id="path158" />
  <path
     fill="#080808"
     stroke="#080808"
     stroke-width="0.09375"
     d=" M 124.4 134.4 C 127.5 133.1 130.4 135.7 131.7 138.3 C 134.7 144.4 134.4 152.5 129.8 157.8 C 127.9 160.0 123.9 160.6 122.2 157.8 C 118.6 152.8 118.2 145.8 120.2 140.1 C 121.0 137.9 122.2 135.5 124.4 134.4 Z"
     id="path160" />
  <path
     fill="#a25d4a"
     stroke="#a25d4a"
     stroke-width="0.09375"
     d=" M 102.8 152.7 C 104.4 153.3 105.9 154.0 107.3 154.9 C 106.9 155.2 105.9 155.6 105.5 155.9 C 105.0 156.7 104.4 157.6 103.9 158.4 C 103.2 156.6 102.8 154.7 102.8 152.7 Z"
     id="path162" />
  <path
     fill="#8d4231"
     stroke="#8d4231"
     stroke-width="0.09375"
     d=" M 98.5 161.8 C 99.5 160.7 100.4 159.6 101.4 158.6 C 101.4 159.7 101.3 160.9 101.3 162.0 C 105.8 164.2 110.7 163.4 115.0 161.1 C 114.8 161.7 114.5 162.8 114.3 163.3 C 109.2 165.5 103.0 165.5 98.5 161.8 Z"
     id="path164" />
  <path
     fill="#f7b5a5"
     stroke="#f7b5a5"
     stroke-width="0.09375"
     d=" M 80.1 160.6 C 82.4 160.8 84.7 160.9 87.0 161.1 C 87.4 161.1 88.1 161.2 88.5 161.2 C 87.9 161.5 86.8 161.9 86.2 162.2 C 86.5 162.5 87.0 163.3 87.3 163.6 C 84.3 164.9 81.1 165.4 77.9 165.6 C 77.1 164.9 76.4 164.1 75.7 163.4 C 77.2 162.4 78.6 161.5 80.1 160.6 Z"
     id="path166" />
  <path
     fill="#fff7e7"
     stroke="#fff7e7"
     stroke-width="0.09375"
     d=" M 160.9 166.0 C 163.4 165.4 166.1 164.8 167.8 162.7 C 169.3 163.1 170.8 163.6 172.3 164.1 C 170.0 169.8 167.1 175.1 163.8 180.3 C 162.0 178.3 159.7 176.4 159.4 173.6 C 159.2 171.0 160.2 168.4 160.9 166.0 Z"
     id="path168" />
  <path
     fill="#efd6bd"
     stroke="#efd6bd"
     stroke-width="0.09375"
     d=" M 154.8 169.3 C 156.1 167.1 158.5 166.3 160.9 166.0 C 160.2 168.4 159.2 171.0 159.4 173.6 C 159.7 176.4 162.0 178.3 163.8 180.3 C 155.7 191.9 143.3 199.6 130.1 204.2 C 132.7 200.6 135.7 196.4 134.4 191.7 C 134.0 189.3 131.9 187.9 130.1 186.6 C 134.9 185.1 139.5 183.0 143.7 180.2 C 146.1 181.8 148.8 183.7 151.9 183.0 C 155.5 182.5 158.0 178.6 157.6 175.1 C 157.2 173.0 155.9 171.2 154.8 169.3 Z"
     id="path170" />
  <path
     fill="#fff7e7"
     stroke="#fff7e7"
     stroke-width="0.09375"
     d=" M 52.8 176.0 C 52.2 171.5 56.4 169.2 59.8 167.6 C 62.1 171.0 64.6 174.3 67.7 177.0 C 66.4 179.5 65.2 182.8 61.9 183.0 C 57.5 184.1 52.3 180.9 52.8 176.0 Z"
     id="path172" />
  <path
     fill="#fff7e7"
     stroke="#fff7e7"
     stroke-width="0.09375"
     d=" M 143.7 180.2 C 148.0 177.2 151.7 173.5 154.8 169.3 C 155.9 171.2 157.2 173.0 157.6 175.1 C 158.0 178.6 155.5 182.5 151.9 183.0 C 148.8 183.7 146.1 181.8 143.7 180.2 Z"
     id="path174" />
  <path
     fill="#ff4574"
     stroke="#ff4574"
     stroke-width="0.09375"
     d=" M 178.3 181.2 C 179.6 180.4 181.0 180.1 182.4 179.7 C 179.1 185.4 175.9 191.4 170.7 195.7 C 166.7 198.9 163.6 203.2 159.7 206.7 C 151.8 212.3 143.1 216.4 134.1 220.0 L 128.6 220.0 C 128.4 217.7 128.2 215.4 128.0 213.1 C 130.4 212.4 132.8 211.5 135.1 210.6 C 135.3 212.3 135.5 213.9 135.7 215.6 C 139.1 213.9 142.5 211.7 146.4 211.9 C 150.2 208.2 155.2 206.2 159.6 203.3 C 158.4 201.8 157.1 200.4 155.9 198.9 C 158.7 196.6 161.4 194.1 164.0 191.5 C 164.0 193.7 164.0 195.9 164.0 198.2 C 167.0 195.5 170.2 192.9 173.0 190.0 C 175.5 187.5 176.2 184.0 178.3 181.2 Z"
     id="path176" />
  <path
     fill="#fff7e7"
     stroke="#fff7e7"
     stroke-width="0.09375"
     d=" M 75.4 182.5 C 79.5 184.7 83.9 186.4 88.4 187.6 C 89.3 191.7 90.5 196.2 88.1 200.0 C 87.3 202.1 84.9 202.7 83.0 203.5 C 77.1 200.8 71.1 197.8 65.8 193.9 C 67.2 188.9 70.8 184.9 75.4 182.5 Z"
     id="path178" />
  <path
     fill="#fff7e7"
     stroke="#fff7e7"
     stroke-width="0.09375"
     d=" M 111.8 189.9 C 118.0 189.6 124.2 188.6 130.1 186.6 C 131.9 187.9 134.0 189.3 134.4 191.7 C 135.7 196.4 132.7 200.6 130.1 204.2 C 127.8 205.0 125.5 205.7 123.2 206.2 C 119.2 205.4 114.9 203.8 112.9 200.0 C 110.9 197.0 111.5 193.2 111.8 189.9 Z"
     id="path180" />
  <path
     fill="#efd6bd"
     stroke="#efd6bd"
     stroke-width="0.09375"
     d=" M 88.4 187.6 C 96.0 189.6 104.0 190.1 111.8 189.9 C 111.5 193.2 110.9 197.0 112.9 200.0 C 114.9 203.8 119.2 205.4 123.2 206.2 C 109.9 209.0 95.8 208.3 83.0 203.5 C 84.9 202.7 87.3 202.1 88.1 200.0 C 90.5 196.2 89.3 191.7 88.4 187.6 Z"
     id="path182" />
  <path
     fill="#ff6081"
     stroke="#ff6081"
     stroke-width="0.09375"
     d=" M 135.1 210.6 C 142.6 207.8 149.6 203.9 155.9 198.9 C 157.1 200.4 158.4 201.8 159.6 203.3 C 155.2 206.2 150.2 208.2 146.4 211.9 C 142.5 211.7 139.1 213.9 135.7 215.6 C 135.5 213.9 135.3 212.3 135.1 210.6 Z"
     id="path184" />
</svg>
